<svg width="60" height="60" viewBox="0 0 60 60" fill="none" xmlns="http://www.w3.org/2000/svg">
<path d="M30 60C46.5685 60 60 46.5685 60 30C60 13.4315 46.5685 0 30 0C13.4315 0 0 13.4315 0 30C0 46.5685 13.4315 60 30 60Z" fill="#FFCC48"/>
<g clip-path="url(#clip0)">
<path d="M30.0034 46.7364L28.5426 47.432L26.8732 46.7364V42.5629L28.4035 41.8673L30.0034 42.5629L30.699 44.7888L30.0034 46.7364Z" fill="#0E2730"/>
<path d="M33.1335 46.7364L31.5685 47.432L30.0034 46.7364V42.5629L31.5685 41.8673L33.1335 42.5629V46.7364Z" fill="#03181F"/>
<path d="M30.0034 35.2591L21.1346 35.9547L12.2659 35.2591V15.4348L21.1346 14.7393L30.0034 15.4348L30.699 25.8687L30.0034 35.2591Z" fill="#FFF5F5"/>
<path d="M47.7409 35.2591L39.6489 35.9547L30.0034 35.2591V28.9988L30.699 25.9846L30.0034 22.7385V15.4348L39.3938 14.7393L47.7409 15.4348V35.2591Z" fill="#ECE6F2"/>
<path d="M47.7408 42.563H12.2659V37.3461H47.7408V42.563Z" fill="#404A80"/>
<path d="M30.0034 42.563H12.2659V37.3461H30.0034V42.563Z" fill="#404A80"/>
<path d="M30.0034 15.435H12.2659V13.3483H30.0034L30.699 14.3916L30.0034 15.435Z" fill="#1E93B7"/>
<path d="M47.7409 15.435H30.0034V13.3483H47.7409V15.435Z" fill="#107999"/>
<path d="M30.0034 37.346L21.1346 38.0416L12.2659 37.346V35.2593H30.0034L30.699 36.3027L30.0034 37.346Z" fill="#1E93B7"/>
<path d="M47.7409 37.346L38.8721 38.0416L30.0034 37.346V35.2593H47.7409V37.346Z" fill="#107999"/>
<path d="M30.0034 42.563H12.2659V37.3461H30.0034L30.699 39.9545L30.0034 42.563Z" fill="#0E2730"/>
<path d="M47.7409 42.563H30.0034V37.3461H47.7409V42.563Z" fill="#03181F"/>
<path d="M30.0034 48.8233H23.7431V46.7366H30.0034L30.699 47.78L30.0034 48.8233Z" fill="#0E2730"/>
<path d="M30.0034 46.7366H36.2637V48.8233H30.0034V46.7366Z" fill="#03181F"/>
<path d="M19.165 24.1544C17.2435 24.9244 15.8829 26.806 15.8829 28.9993V30.0427L18.2131 30.7383L21.0998 30.0427L21.7954 27.4169L21.0998 24.8254L19.165 24.1544Z" fill="#2EE6A8"/>
<path d="M21.0998 24.8254V30.0427L23.6212 30.7383L26.3167 30.0427V28.9993C26.3167 26.8061 24.9562 24.9246 23.0348 24.1544L21.0998 24.8254Z" fill="#24B3B3"/>
<path d="M17.9698 21.6959C17.9698 23.422 19.3739 24.8261 21.0999 24.8261L21.7955 21.6959L21.0999 18.5658C19.3739 18.5658 17.9698 19.97 17.9698 21.6959Z" fill="#F0CABB"/>
<path d="M21.0998 18.5653V24.8256C22.8258 24.8256 24.2299 23.4215 24.2299 21.6955C24.2299 19.9694 22.8258 18.5653 21.0998 18.5653Z" fill="#EDBBA7"/>
<path d="M15.8829 30.0431V32.1299H21.0998L21.7954 31.0865L21.0998 30.0431H15.8829Z" fill="#24B3B3"/>
<path d="M21.0998 30.0425H26.3167V32.1292H21.0998V30.0425Z" fill="#198080"/>
<path d="M30.0034 22.7388V28.9991H33.1335L39.3938 22.7388H30.0034Z" fill="#FF6C6C"/>
<path d="M44.6107 22.7388H39.3938L33.1335 28.9991H44.6107V22.7388Z" fill="#107999"/>
</g>
<defs>
<clipPath id="clip0">
<rect width="35.4749" height="35.4749" fill="white" transform="translate(12.2659 13.3483)"/>
</clipPath>
</defs>
</svg>
