<svg width="60" height="60" viewBox="0 0 60 60" fill="none" xmlns="http://www.w3.org/2000/svg">
<path d="M30 60C46.5685 60 60 46.5685 60 30C60 13.4315 46.5685 0 30 0C13.4315 0 0 13.4315 0 30C0 46.5685 13.4315 60 30 60Z" fill="#FFCC48"/>
<g clip-path="url(#clip0)">
<path d="M15.7589 44.2981V50.4114H27.824L29.5706 47.2357L27.824 44.2981H15.7589Z" fill="#D5E3E7"/>
<path d="M47.1167 13.811H42.353L27.824 44.2982V50.4115H47.1167V13.811Z" fill="#B3D1D6"/>
<path d="M13.2949 10V45.6478H27.8239L29.253 28.3399L27.8239 10H13.2949Z" fill="#F1F6F7"/>
<path d="M27.824 10H42.353V45.6478H27.824V10Z" fill="#D5E3E7"/>
<path d="M21.3137 20.9768H23.6955V30.0318H21.3137V20.9768Z" fill="#0D90BC"/>
<path d="M31.9525 21.0315H34.3343V30.0865H31.9525V21.0315Z" fill="#09607D"/>
<path d="M18.7731 33.6702H26.5537V36.052H18.7731V33.6702Z" fill="#D5E3E7"/>
<path d="M18.7731 38.4995H26.5537V40.8813H18.7731V38.4995Z" fill="#D5E3E7"/>
<path d="M29.0559 33.6702H36.8365V36.052H29.0559V33.6702Z" fill="#B3D1D6"/>
<path d="M29.0559 38.4995H36.8365V40.8813H29.0559V38.4995Z" fill="#B3D1D6"/>
<path d="M26.6331 21.0315V30.0865H27.824L28.1416 25.4023L27.824 21.0315H26.6331Z" fill="#0D90BC"/>
<path d="M27.824 21.0315H29.0149V30.0865H27.824V21.0315Z" fill="#09607D"/>
<path d="M18.7731 19.0754V21.4328H27.824L28.7767 18.1777L27.824 13.9509L18.7731 19.0754Z" fill="#00C6CD"/>
<path d="M36.8763 19.0753L27.8254 13.9509V13.9501L27.8247 13.9505L27.824 13.9501V13.9509V21.4327H36.8763V19.0753Z" fill="#0D90BC"/>
<path d="M19.8846 28.8956V31.2774H27.824L28.4591 30.0865L27.824 28.8956H19.8846Z" fill="#00C6CD"/>
<path d="M27.824 28.8956H35.7634V31.2774H27.824V28.8956Z" fill="#0D90BC"/>
</g>
<defs>
<clipPath id="clip0">
<rect width="40.4114" height="40.4114" fill="white" transform="translate(10 10)"/>
</clipPath>
</defs>
</svg>
