<svg width="60" height="60" viewBox="0 0 60 60" fill="none" xmlns="http://www.w3.org/2000/svg">
<path d="M29.9988 58.47C46.1448 58.47 59.2337 45.381 59.2337 29.235C59.2337 13.0889 46.1448 0 29.9988 0C13.8527 0 0.763794 13.0889 0.763794 29.235C0.763794 45.381 13.8527 58.47 29.9988 58.47Z" fill="#FFCC48"/>
<path d="M30.8275 58.4575C36.5641 58.298 42.2287 56.4623 47.0871 52.9562C53.1864 48.5547 57.4114 41.9492 58.7645 34.4773C58.7734 34.4282 58.782 34.3791 58.7906 34.3299C60.4227 25.0465 57.5189 15.6081 50.9665 8.8651C50.9664 8.86499 50.9663 8.86499 50.9663 8.86487C53.4239 13.2202 49.2433 17.9664 44.7744 16.4776L35.5911 13.418C33.5773 12.747 31.4002 12.747 29.3863 13.418L8.68442 20.3151C7.62702 20.6674 7.62831 22.1635 8.68631 22.514L11.8223 23.5528L15.1219 24.6458V41.6151L23.8849 42.8843C29.9597 43.7641 29.2152 51.5512 23.1026 50.9923C23.0354 50.9861 22.9683 50.9799 22.9011 50.9735C19.0361 50.6085 17.9654 56.0763 21.6121 57.2467C24.5682 58.1305 27.6074 58.5303 30.6696 58.4613C30.7222 58.4603 30.7749 58.459 30.8275 58.4575Z" fill="#FFCC48"/>
<path d="M17.7366 25.7579L18.6716 50.1986C21.6847 50.9403 25.5634 51.3866 29.7956 51.3866C39.387 51.3866 47.1623 49.0943 47.1623 46.2668V25.7579H17.7366Z" fill="#107999"/>
<path d="M12.4291 25.7579V46.2667C12.4291 47.8465 14.8569 49.259 18.6717 50.1982V38.1685C18.6717 35.9439 20.8489 34.3715 22.9607 35.0712L27.6948 36.6394C29.1865 37.1336 30.7984 37.1301 32.288 36.6294L39.3725 34.2482C41.703 33.4648 44.1147 35.1986 44.1147 37.6572V49.164C46.0366 48.3401 47.1623 47.3423 47.1623 46.2668V31.6297V25.7579H12.4291Z" fill="#1681A2"/>
<path d="M27.6947 34.3542L9.12946 28.2043L26.3646 20.7883L36.2237 19.1774L53.6239 24.9745C54.6788 25.3261 54.6808 26.8175 53.6268 27.1719L32.288 34.3441C30.7984 34.8448 29.1866 34.8484 27.6947 34.3542Z" fill="#107999"/>
<path d="M32.1456 33.1622L19.5273 28.9824C17.6018 28.3445 17.5838 25.6271 19.5007 24.9638L36.2236 19.1775L32.898 18.0695C30.8842 17.3985 28.7071 17.3985 26.6932 18.0695L5.99155 24.9665C4.93415 25.3189 4.93544 26.815 5.99344 27.1654L9.12946 28.2042L27.6949 34.3541C29.1866 34.8482 30.7984 34.8447 32.288 34.344L34.7283 33.5238C33.858 33.5601 32.983 33.4396 32.1456 33.1622Z" fill="#2395B8"/>
<path d="M42.864 59.9999C42.019 59.9999 41.334 59.3149 41.334 58.4698V31.8641L29.2766 27.5149C28.4816 27.2282 28.0696 26.3513 28.3564 25.5564C28.6431 24.7614 29.5199 24.3495 30.3149 24.6363L43.3831 29.35C43.9898 29.5687 44.394 30.1444 44.394 30.7892V58.4697C44.3941 59.3148 43.709 59.9999 42.864 59.9999Z" fill="#EAB500"/>
<path d="M39.7129 29.1008C39.7129 28.4559 39.3086 27.8803 38.702 27.6614L30.3149 24.6363C29.5199 24.3495 28.6431 24.7614 28.3565 25.5564C28.0697 26.3513 28.4817 27.2282 29.2766 27.5149L37.6638 30.5401C38.661 30.8998 39.7129 30.161 39.7129 29.1008Z" fill="#F9C205"/>
</svg>
