<svg width="60" height="60" viewBox="0 0 60 60" fill="none" xmlns="http://www.w3.org/2000/svg">
<g clip-path="url(#clip0)">
<path d="M30 60C46.5685 60 60 46.5685 60 30C60 13.4315 46.5685 0 30 0C13.4315 0 0 13.4315 0 30C0 46.5685 13.4315 60 30 60Z" fill="#FFCC48"/>
<path d="M60 30.0001C60 26.1713 59.2815 22.5106 57.9739 19.1438L47.9372 9.10711L40.4737 7.88098L37.6368 5.15637L12.789 51.6192L19.1437 57.9739C22.5105 59.2815 26.1712 60.0001 30 60.0001C46.5686 60.0001 60 46.5687 60 30.0001Z" fill="#FFCC48"/>
<path d="M43.607 53.4452H15.4396C12.9876 53.4452 11 51.4574 11 49.0056V13.6303C11 11.1783 12.9876 9.19067 15.4396 9.19067H43.607C46.0589 9.19067 48.0466 11.1783 48.0466 13.6303V49.0056C48.0466 51.4576 46.0589 53.4452 43.607 53.4452Z" fill="#3D5D72"/>
<path d="M48.0461 13.6301V49.0056C48.0461 51.4569 46.0594 53.4447 43.607 53.4447H29.5233V9.19092H43.607C46.0594 9.19092 48.0461 11.1788 48.0461 13.6301Z" fill="#244654"/>
<path d="M44.3583 13.3197V49.2118H14.6884V13.3197H44.3583Z" fill="#FFF7C5"/>
<path d="M29.5233 13.3204H44.3583V49.2121H29.5233V13.3204Z" fill="#FFDE94"/>
<path d="M36.9983 7V16.3024H22.0483V7H36.9983Z" fill="#1890B5"/>
<path d="M29.5233 7H36.9987V16.3027H29.5233V7Z" fill="#107999"/>
<path d="M20.3467 21.4275H29.5233V24.8687H20.3467V21.4275Z" fill="#4E7184"/>
<path d="M20.3467 30.7394H29.5233V34.1806H20.3467V30.7394Z" fill="#4E7184"/>
<path d="M20.3467 40.0513H29.5233V43.4925H20.3467V40.0513Z" fill="#4E7184"/>
<path d="M38.7397 19.7251L36.3881 22.4541L34.8614 21.1368L32.9645 23.3464L36.7663 26.4756L40.917 21.6591L38.7397 19.7251Z" fill="#107999"/>
<path d="M38.7397 29.0844L36.3881 31.8133L34.8614 30.4962L32.9645 32.7058L36.7663 35.8349L40.917 31.0183L38.7397 29.0844Z" fill="#107999"/>
<path d="M38.7397 38.444L36.3881 41.173L34.8614 39.8557L32.9645 42.0653L36.7663 45.1945L40.917 40.3779L38.7397 38.444Z" fill="#107999"/>
</g>
<defs>
<clipPath id="clip0">
<rect width="60" height="60" fill="white"/>
</clipPath>
</defs>
</svg>
