<svg width="60" height="60" viewBox="0 0 60 60" fill="none" xmlns="http://www.w3.org/2000/svg">
<path d="M30.0541 59.9936C45.8606 59.9936 58.6742 47.18 58.6742 31.3735C58.6742 15.5671 45.8606 2.75342 30.0541 2.75342C14.2477 2.75342 1.43405 15.5671 1.43405 31.3735C1.43405 47.18 14.2477 59.9936 30.0541 59.9936Z" fill="#FFCC48"/>
<path d="M52.5 19.8047H43.0203C42.394 20.1216 41.687 20.3013 40.9384 20.3013H37.343C36.5944 20.3013 35.8874 20.1216 35.2612 19.8047H30.3516C29.3808 19.8047 28.5938 20.5917 28.5938 21.5625V22.1066C28.801 22.0579 29.0165 22.0312 29.2383 22.0312H49.043C50.5937 22.0312 51.8555 23.293 51.8555 24.8437V42.4219H54.2578V21.5625C54.2578 20.5917 53.4708 19.8047 52.5 19.8047Z" fill="#ACACAC"/>
<path d="M29.2383 21.9141H32.1094V21.5625C32.1094 20.5917 32.8964 19.8047 33.8672 19.8047H30.3516C29.3808 19.8047 28.5938 20.5917 28.5938 21.5625V21.9861C28.8013 21.9395 29.0167 21.9141 29.2383 21.9141Z" fill="#9C9C9C"/>
<path d="M27.5328 47.8126V59.6486L27.65 59.9039C28.4251 59.9667 29.2088 60.0001 30.0001 60.0001C39.6532 60.0001 48.1946 55.235 53.3993 47.9298L53.3204 47.8126H27.5328Z" fill="#FFBD86"/>
<path d="M49.043 21.9142H29.2383C27.6203 21.9142 26.3086 23.2259 26.3086 24.8439V34.994C27.0689 35.8325 27.5327 36.9447 27.5327 38.1631V42.422H51.9727V24.8439C51.9727 23.2259 50.661 21.9142 49.043 21.9142Z" fill="white"/>
<path d="M29.2383 21.9142C27.6203 21.9142 26.3086 23.2259 26.3086 24.8439V34.994C27.0689 35.8325 27.5327 36.9447 27.5327 38.1631V42.422H29.4141V24.8439C29.4141 23.2259 30.7257 21.9142 32.3438 21.9142H29.2383Z" fill="#F8F6F6"/>
<path d="M48.1313 26.8362L42.8886 19.8691C42.2955 20.1459 41.6349 20.3016 40.9383 20.3016H37.343C36.6465 20.3016 35.9859 20.1459 35.3928 19.8691L30.1501 26.8362C29.9826 27.0783 30.0479 27.4109 30.2944 27.5716L33.0193 29.3484L30.4907 31.0334C30.2648 31.184 30.1967 31.4852 30.3359 31.7183L34.7908 39.1732V23.2138C34.7908 23.0052 34.9604 22.8356 35.169 22.8356H43.1125C43.321 22.8356 43.4907 23.0052 43.4907 23.2138V39.1732L47.9454 31.7184C48.0847 31.4854 48.0166 31.1841 47.7908 31.0335L45.2622 29.3486L47.987 27.5718C48.2335 27.4109 48.2988 27.0783 48.1313 26.8362Z" fill="#EAF6FF"/>
<path d="M43.6217 42.422V23.2135C43.6217 22.9323 43.3938 22.7043 43.1125 22.7043H35.1688C34.8876 22.7043 34.6597 22.9324 34.6597 23.2135V42.422H43.6217Z" fill="#22B27F"/>
<path d="M41.8165 22.3988V20.2168C41.532 20.2716 41.2386 20.3014 40.9383 20.3014H37.343C37.0426 20.3014 36.7493 20.2716 36.4648 20.2168V22.3988C36.4648 22.5676 36.328 22.7043 36.1593 22.7043H35.5763L38.8811 28.0334C39.0006 28.2261 39.2809 28.2261 39.4003 28.0334L42.7051 22.7043H42.1221C41.9532 22.7043 41.8165 22.5676 41.8165 22.3988Z" fill="#FFBD86"/>
<path d="M38.5714 22.7043C38.7401 22.7043 38.8769 22.5676 38.8769 22.3988V20.3014H37.3429C37.0425 20.3014 36.7492 20.2716 36.4647 20.2168V22.3988C36.4647 22.5676 36.3279 22.7043 36.1592 22.7043H35.576L38.8809 28.0334C39.0004 28.2261 39.2807 28.2261 39.4001 28.0334L40.3465 26.5073L38.2954 23.1998C38.1616 22.9837 38.3171 22.7043 38.5714 22.7043Z" fill="#F6A96C"/>
<path d="M42.0703 3.44735V7.32989H43.9257C44.8304 7.32989 45.5664 8.06583 45.5664 8.97051V10.6124H46.6269C47.0734 10.6124 47.484 10.7655 47.8124 11.0198V5.57817C47.8124 3.31036 45.9739 1.4718 43.7061 1.4718H41.4189C41.828 2.02493 42.0703 2.70825 42.0703 3.44735Z" fill="#FB8801"/>
<path d="M31.6543 10.6123H32.7148V8.97036C32.7148 8.06567 33.4508 7.32973 34.3554 7.32973H42.1876V3.44719C42.1876 1.54336 40.6442 0.00012207 38.7405 0.00012207H33.9159C32.0122 0.00012207 30.4688 1.54336 30.4688 3.44719V11.0196C30.7972 10.7653 31.2078 10.6123 31.6543 10.6123Z" fill="#FE9901"/>
<path d="M31.6543 10.6123H32.7148V8.97036C32.7148 8.19352 33.2581 7.54243 33.9843 7.37368V3.44719C33.9844 1.54336 35.5278 0.00012207 37.4315 0.00012207H33.9159C32.0122 0.00012207 30.4688 1.54336 30.4688 3.44719V11.0196C30.7972 10.7653 31.2078 10.6123 31.6543 10.6123Z" fill="#FB8801"/>
<path d="M32.715 15.6733V10.4951H31.6544C30.5175 10.4951 29.5958 11.4168 29.5958 12.5538V14.0601C29.5958 15.197 30.5175 16.1187 31.6544 16.1187H32.7369C32.7227 15.9721 32.715 15.8236 32.715 15.6733Z" fill="#FFBD86"/>
<path d="M46.6271 10.4951H45.5665V15.6734C45.5665 15.8237 45.5587 15.9722 45.5446 16.1189H46.6271C47.764 16.1189 48.6857 15.1973 48.6857 14.0603V12.554C48.6857 11.4168 47.764 10.4951 46.6271 10.4951Z" fill="#FFBD86"/>
<path d="M32.5976 8.97034V15.6733C32.5976 18.2941 34.7222 20.4186 37.3429 20.4186H40.9382C43.559 20.4186 45.6835 18.294 45.6835 15.6733V8.97034C45.6835 7.99956 44.8965 7.21252 43.9257 7.21252H34.3553C33.3847 7.21252 32.5976 7.99956 32.5976 8.97034Z" fill="#FED2A4"/>
<path d="M35.8097 12.7486C35.3243 12.7486 34.9308 12.3552 34.9308 11.8697V10.8309C34.9308 10.3454 35.3243 9.95203 35.8097 9.95203C36.2951 9.95203 36.6886 10.3454 36.6886 10.8309V11.8697C36.6886 12.3552 36.2951 12.7486 35.8097 12.7486Z" fill="#EA9B58"/>
<path d="M42.3798 12.7483C41.8944 12.7483 41.5009 12.3549 41.5009 11.8694V10.8307C41.5009 10.3452 41.8944 9.95178 42.3798 9.95178C42.8652 9.95178 43.2587 10.3452 43.2587 10.8307V11.8694C43.2587 12.3549 42.8652 12.7483 42.3798 12.7483Z" fill="#EA9B58"/>
<path d="M39.3168 18.502C38.3272 18.502 37.3377 18.1254 36.5844 17.3721C36.2412 17.0288 36.2412 16.4723 36.5844 16.1292C36.9277 15.7858 37.4842 15.786 37.8273 16.1291C38.6486 16.9504 39.985 16.9503 40.8061 16.1291C41.1494 15.786 41.7059 15.786 42.049 16.1291C42.3922 16.4724 42.3922 17.0288 42.049 17.3721C41.2958 18.1254 40.3063 18.502 39.3168 18.502Z" fill="#EA9B58"/>
<path d="M39.8108 14.9487H39.1406C38.4713 14.9487 37.9267 14.4041 37.9267 13.7348V12.171C37.9267 11.6855 38.3202 11.2921 38.8056 11.2921C39.291 11.2921 39.6845 11.6855 39.6845 12.171V13.1909H39.8108C40.2962 13.1909 40.6898 13.5843 40.6898 14.0698C40.6898 14.5553 40.2962 14.9487 39.8108 14.9487Z" fill="#EA9B58"/>
<path d="M49.1935 42.4218V27.4009C49.1935 27.1823 49.0163 27.0052 48.7979 27.0052H36.6066C36.3881 27.0052 36.211 27.1823 36.211 27.4009V42.4218H49.1935Z" fill="#107999"/>
<path d="M38.6719 42.4218V27.4009C38.6719 27.1823 38.8491 27.0052 39.0676 27.0052H36.6066C36.3881 27.0052 36.211 27.1823 36.211 27.4009V42.4218H38.6719Z" fill="#0E8EB5"/>
<path d="M40.2224 28.3467H45.182C45.4006 28.3467 45.5776 28.1695 45.5776 27.951V26.354C45.5776 26.1354 45.4005 25.9584 45.182 25.9584H40.2224C40.0038 25.9584 39.8268 26.1356 39.8268 26.354V27.951C39.8268 28.1695 40.004 28.3467 40.2224 28.3467Z" fill="#9C9C9C"/>
<path d="M42.1875 27.951V26.354C42.1875 26.1354 42.3647 25.9584 42.5832 25.9584H40.2224C40.0039 25.9584 39.8268 26.1354 39.8268 26.354V27.951C39.8268 28.1696 40.004 28.3467 40.2224 28.3467H42.5832C42.3647 28.3467 42.1875 28.1695 42.1875 27.951Z" fill="#838383"/>
<path d="M46.0644 40.4154C46.0644 40.7794 46.2922 41.0922 46.6119 41.2199C46.2759 41.3541 46.0416 41.6924 46.0662 42.0798C46.074 42.2036 46.1093 42.3188 46.1647 42.4219H50.2146C50.4777 42.1481 50.6402 41.777 50.6402 41.3673V37.8545C50.6402 37.0132 49.9582 36.3312 49.1169 36.3312H46.9583C46.4965 36.3312 46.0952 36.6811 46.0661 37.142C46.0416 37.5294 46.2759 37.8677 46.6118 38.0019C46.292 38.1297 46.0643 38.4424 46.0643 38.8064C46.0643 39.1704 46.2921 39.4832 46.6118 39.6109C46.2921 39.7388 46.0644 40.0514 46.0644 40.4154Z" fill="#FED2A4"/>
<path d="M46.0644 40.4154C46.0644 40.7794 46.2922 41.0922 46.6119 41.2199C46.2759 41.3541 46.0416 41.6924 46.0662 42.0798C46.074 42.2036 46.1093 42.3188 46.1647 42.4219H48.1153C47.852 42.1485 47.6898 41.7771 47.6898 41.3673V37.8545C47.6898 37.0295 48.3462 36.3593 49.165 36.3336C49.1488 36.3332 49.1331 36.3312 49.1169 36.3312H46.9583C46.4965 36.3312 46.0952 36.6811 46.0661 37.142C46.0416 37.5294 46.2759 37.8677 46.6118 38.0019C46.292 38.1297 46.0643 38.4424 46.0643 38.8064C46.0643 39.1704 46.2921 39.4832 46.6118 39.6109C46.2921 39.7388 46.0644 40.0514 46.0644 40.4154Z" fill="#FFBD86"/>
<path d="M27.5328 42.3047V47.9297H53.3993C54.6393 46.1891 55.6889 44.3037 56.5202 42.3047H27.5328Z" fill="#F6A96C"/>
<path d="M32.2266 44.4141V42.3047H27.5328V47.9297H53.3993C53.9367 47.1752 54.436 46.3922 54.8996 45.5859H33.3985C32.7513 45.5859 32.2266 45.0613 32.2266 44.4141Z" fill="#EA9B58"/>
<path d="M18.0559 30.9359V32.2582C18.0559 32.6089 18.0037 32.9554 17.901 33.288L17.8541 33.4398H21.0473C21.0477 33.4217 21.0487 33.4038 21.0487 33.3857V30.8837C20.8166 30.9178 20.5799 30.936 20.3394 30.936H18.0559V30.9359Z" fill="#FFBD86"/>
<path d="M22.8097 33.3226H11.3702C8.69694 33.3226 6.52991 35.4897 6.52991 38.1629V39.1406H21.5626C22.4673 39.1406 23.2032 39.8766 23.2032 40.7813V59.1865C24.6463 59.5369 26.1309 59.7808 27.65 59.9038V38.1628C27.65 35.4897 25.483 33.3226 22.8097 33.3226Z" fill="#8AC9FE"/>
<path d="M11.3673 39.0235V38.1628C11.3673 37.3288 11.5783 36.544 11.9498 35.8589H10.243C9.29797 35.8589 8.43851 35.4945 7.79621 34.899C7.00988 35.7597 6.53 36.9052 6.53 38.1628V39.0235H11.3673Z" fill="#60B7FF"/>
<path d="M21.1458 7.70532H15.1585C10.455 7.70532 6.642 11.5183 6.642 16.2217V32.2581C6.642 34.2468 8.25415 35.859 10.2429 35.859H14.5722C16.5609 35.859 18.1731 34.2469 18.1731 32.2581V31.0531L18.2853 30.9168V26.068C18.2853 25.778 18.0448 25.5421 17.7494 25.5421H17.5019C16.4913 25.5421 15.6719 24.7228 15.6719 23.7121V21.3164C15.6719 20.3058 16.4911 19.4864 17.5019 19.4864H17.7441C17.9207 19.4865 18.061 19.627 18.061 19.7994V22.0325C18.061 22.1588 18.1108 22.2748 18.2013 22.3592C18.2848 22.4371 18.398 22.4818 18.512 22.4818C18.6307 22.4818 18.743 22.4343 18.8283 22.3483L24.8617 16.2527C24.9167 16.1973 24.9774 16.1856 25.0186 16.1856C25.1301 16.1856 25.2454 16.2697 25.2454 16.4105V17.8623C26.6584 17.293 27.6563 15.91 27.6563 14.293V14.2159C27.6563 10.6201 24.7415 7.70532 21.1458 7.70532Z" fill="#883F2E"/>
<path d="M10.3125 32.2581V16.2217C10.3125 11.5183 14.1255 7.70532 18.829 7.70532H15.1585C10.4549 7.70532 6.642 11.5183 6.642 16.2217V32.2581C6.642 34.2468 8.25415 35.859 10.2429 35.859H13.9135C11.9247 35.859 10.3125 34.2469 10.3125 32.2581Z" fill="#6D3326"/>
<path d="M27.3692 25.2704L25.4657 22.6713C25.3953 22.5752 25.3574 22.4592 25.3574 22.34V16.4107C25.3574 16.1101 24.9933 15.9605 24.7819 16.174L18.7487 22.2693C18.5373 22.4829 18.1731 22.3331 18.1731 22.0325V19.7994C18.1731 19.5648 17.9831 19.3746 17.7485 19.3744H17.744H17.5018C16.4336 19.3744 15.5596 20.2484 15.5596 21.3165V23.7122C15.5596 24.7804 16.4336 25.6543 17.5018 25.6543H17.744H17.7485C17.982 25.6541 18.1731 25.845 18.1731 26.0786V31.0532H20.3395C22.885 31.0532 24.9865 29.1575 25.3123 26.7011C25.3492 26.4227 25.5863 26.215 25.8671 26.215H26.8903C27.3764 26.215 27.6564 25.6627 27.3692 25.2704Z" fill="#FED2A4"/>
<path d="M22.7903 23.3374C22.3049 23.3374 21.9114 22.944 21.9114 22.4585V21.3928C21.9114 20.9073 22.3049 20.5139 22.7903 20.5139C23.2757 20.5139 23.6692 20.9073 23.6692 21.3928V22.4585C23.6692 22.9439 23.2757 23.3374 22.7903 23.3374Z" fill="#EA9B58"/>
<path d="M21.5625 39.0236H5.27347C4.30269 39.0236 3.51566 39.8106 3.51566 40.7814V42.3921C7.01933 50.7396 14.3542 57.0805 23.3203 59.2172V40.7814C23.3203 39.8106 22.5333 39.0236 21.5625 39.0236Z" fill="#9C9C9C"/>
<path d="M8.20316 40.7814C8.20316 39.8106 8.99019 39.0236 9.96097 39.0236H5.27347C4.30269 39.0236 3.51566 39.8106 3.51566 40.7814V42.3921C4.68073 45.1681 6.27167 47.7202 8.20316 49.9713V40.7814Z" fill="#838383"/>
</svg>
