<svg width="60" height="60" viewBox="0 0 60 60" fill="none" xmlns="http://www.w3.org/2000/svg">
<path d="M30 60C46.5685 60 60 46.5685 60 30C60 13.4315 46.5685 0 30 0C13.4315 0 0 13.4315 0 30C0 46.5685 13.4315 60 30 60Z" fill="#FFCC48"/>
<g clip-path="url(#clip0)">
<path d="M22.4293 11.5303H54.8512V32.0381H22.4293V11.5303Z" fill="#C1F261"/>
<path d="M38.738 11.5303H54.8513V32.0381H38.738V11.5303Z" fill="#A0E65C"/>
<path d="M16.5699 17.3895H48.7965V37.8973H16.5699V17.3895Z" fill="#79CC52"/>
<path d="M32.6832 17.3895H48.7964V37.8973H32.6832V17.3895Z" fill="#59B348"/>
<path d="M26.8238 23.2493H10.7105V43.7571H26.8238H42.9371V23.2493H26.8238Z" fill="#C1F261"/>
<path d="M26.8238 23.2491H42.9371V43.757H26.8238V23.2491Z" fill="#A0E65C"/>
<path d="M16.5699 32.0382H19.4996V34.9679H16.5699V32.0382Z" fill="#79CC52"/>
<path d="M34.1481 32.0382H37.0778V34.9679H34.1481V32.0382Z" fill="#59B348"/>
<path d="M26.8238 37.8973C29.2508 37.8973 31.2183 35.9298 31.2183 33.5028C31.2183 31.0758 29.2508 29.1083 26.8238 29.1083C24.3968 29.1083 22.4293 31.0758 22.4293 33.5028C22.4293 35.9298 24.3968 37.8973 26.8238 37.8973Z" fill="#79CC52"/>
<path d="M31.2183 33.5028C31.2183 31.0796 29.247 29.1083 26.8238 29.1083V37.8973C29.247 37.8973 31.2183 35.9261 31.2183 33.5028Z" fill="#59B348"/>
<path d="M12.1754 34.7947L4.8512 38.4568V41.601C4.8512 46.2001 7.40608 50.1612 11.5202 52.2183L12.1754 52.5459L12.8306 52.2183C16.9448 50.1612 19.4996 46.2001 19.4996 41.601V38.4568L12.1754 34.7947Z" fill="#F3F5F9"/>
<path d="M19.4996 41.601V38.4568L12.1754 34.7947V52.5459L12.8306 52.2183C16.9448 50.1612 19.4996 46.2001 19.4996 41.601Z" fill="#CFD7E6"/>
<path d="M12.1754 38.0704L7.78082 40.2677V41.6009C7.78082 44.8324 9.44596 47.5876 12.1754 49.2369C14.9047 47.5875 16.5699 44.8323 16.5699 41.6009V40.2677L12.1754 38.0704Z" fill="#107999"/>
<path d="M16.5699 41.6011V40.2679L12.1754 38.0707V49.2373C14.9048 47.5879 16.5699 44.8327 16.5699 41.6011Z" fill="#0D90BC"/>
</g>
<defs>
<clipPath id="clip0">
<rect width="50" height="50" fill="white" transform="translate(4.8512 7)"/>
</clipPath>
</defs>
</svg>
