<svg width="64" height="64" viewBox="0 0 64 64" fill="none" xmlns="http://www.w3.org/2000/svg">
<g clip-path="url(#clip0)">
<path d="M32.0019 64.0039C49.6761 64.0039 64.0039 49.6761 64.0039 32.0019C64.0039 14.3278 49.6761 0 32.0019 0C14.3278 0 0 14.3278 0 32.0019C0 49.6761 14.3278 64.0039 32.0019 64.0039Z" fill="#FFCC48"/>
<path fill-rule="evenodd" clip-rule="evenodd" d="M6.72304 17.5408H57.277V48.0492H6.72304V17.5408Z" fill="#8E8E93"/>
<path fill-rule="evenodd" clip-rule="evenodd" d="M8.08926 15.9508H28.5015C30.4235 15.9508 32.0019 17.73 32.0019 19.9067V46.2315H8.08926V15.9508Z" fill="#E1E3E8"/>
<path fill-rule="evenodd" clip-rule="evenodd" d="M9.65231 15.9508H28.5015C30.4235 15.9508 32.002 17.73 32.002 19.9067V44.4639H31.9904C31.3497 43.3485 30.2382 42.6114 28.9801 42.6114H9.65231V15.9508Z" fill="white"/>
<path fill-rule="evenodd" clip-rule="evenodd" d="M30.3849 16.576C31.3536 17.2823 32.0019 18.5134 32.0019 19.9066V44.4638H31.9904C31.6006 43.7923 31.0448 43.2558 30.3849 42.9355V16.576Z" fill="#E1E3E8"/>
<path fill-rule="evenodd" clip-rule="evenodd" d="M11.7441 18.9264H19.9954V20.2H11.7441V18.9264Z" fill="#FF576B"/>
<path fill-rule="evenodd" clip-rule="evenodd" d="M11.7441 22.6622H25.6957V23.4843H11.7441V22.6622ZM11.7441 34.0821H19.32V34.9003H11.7441V34.0821ZM11.7441 31.7974H25.6957V32.6194H11.7441V31.7974ZM11.7441 29.5165H25.6957V30.3347H11.7441V29.5165ZM11.7441 27.2317H21.9174V28.0499H11.7441V27.2317ZM11.7441 24.947H25.6957V25.7652H11.7441V24.947Z" fill="#AFB0B5"/>
<path fill-rule="evenodd" clip-rule="evenodd" d="M55.9107 15.9508H35.4985C33.5765 15.9508 32.0019 17.73 32.0019 19.9067V46.2315H55.9107V15.9508Z" fill="#E1E3E8"/>
<path fill-rule="evenodd" clip-rule="evenodd" d="M54.3477 15.9508H35.4985C33.5765 15.9508 32.0019 17.73 32.0019 19.9067V44.4639H32.0096C32.6503 43.3485 33.7618 42.6114 35.0199 42.6114H54.3477V15.9508Z" fill="white"/>
<path fill-rule="evenodd" clip-rule="evenodd" d="M36.8455 18.9264H50.7971V19.7445H36.8455V18.9264ZM36.8455 32.6271H45.1547V33.4492H36.8455V32.6271ZM36.8455 30.3462H50.7971V31.1644H36.8455V30.3462ZM36.8455 28.0615H50.7971V28.8797H36.8455V28.0615ZM36.8455 25.7768H50.7971V26.5988H36.8455V25.7768ZM36.8455 23.492H47.0188V24.314H36.8455V23.492ZM36.8455 21.2111H50.7971V22.0293H36.8455V21.2111ZM36.8455 37.0461H50.7971V37.8643H36.8455V37.0461ZM36.8455 39.327H50.7971V40.1491H36.8455V39.327ZM11.5473 37.0461H25.4989V37.8643H11.5473V37.0461ZM11.5473 39.327H25.4989V40.1491H11.5473V39.327Z" fill="#AFB0B5"/>
<path fill-rule="evenodd" clip-rule="evenodd" d="M27.1623 15.9508H28.6481V26.5486L27.9071 25.9775L27.1623 26.5486V15.9508Z" fill="#72CF7B"/>
<path fill-rule="evenodd" clip-rule="evenodd" d="M30.4852 45.1856H8.98462L9.43617 43.5145H27.5482C27.5482 43.5145 30.1726 43.3408 30.4852 45.1856ZM33.5148 45.1856H55.0154L54.5638 43.5145H36.4518C36.4518 43.5145 33.8274 43.3408 33.5148 45.1856Z" fill="#C5C7CB"/>
</g>
<defs>
<clipPath id="clip0">
<rect width="64" height="64" fill="white"/>
</clipPath>
</defs>
</svg>
