<svg width="64" height="64" viewBox="0 0 64 64" fill="none" xmlns="http://www.w3.org/2000/svg">
<path d="M32 63.5077C49.4012 63.5077 63.5077 49.4012 63.5077 32C63.5077 14.5988 49.4012 0.49231 32 0.49231C14.5988 0.49231 0.49231 14.5988 0.49231 32C0.49231 49.4012 14.5988 63.5077 32 63.5077Z" fill="#FFCC48"/>
<path d="M35.0122 4.84385C35.0122 5.11716 34.7906 5.33872 34.5173 5.33872H31.4051C31.133 5.33872 30.9103 5.11604 30.9103 4.84386C30.9103 4.57167 31.133 4.34897 31.4051 4.34897H34.5173C34.7906 4.34897 35.0122 4.57053 35.0122 4.84385ZM36.4241 4.84385C36.4241 4.57053 36.6456 4.34897 36.9189 4.34897H37.2571C37.5304 4.34897 37.7519 4.57053 37.7519 4.84385C37.7519 5.11716 37.5304 5.33872 37.2571 5.33872H36.9189C36.6456 5.33872 36.4241 5.11716 36.4241 4.84385ZM38.5666 4.84385C38.5666 4.57053 38.7882 4.34897 39.0615 4.34897H40.8785C41.1518 4.34897 41.3734 4.57053 41.3734 4.84385C41.3734 5.11716 41.1518 5.33872 40.8785 5.33872H39.0615C38.7882 5.33872 38.5666 5.11716 38.5666 4.84385ZM14.6226 9.70175C14.8959 9.70175 15.1174 9.48021 15.1174 9.20689C15.1174 8.93357 14.8959 8.712 14.6226 8.712H10.7775C10.4241 9.03423 10.0777 9.36395 9.73939 9.70175H14.6226ZM19.1012 9.20693C19.1012 9.48024 18.8796 9.70181 18.6063 9.70181H16.5763C16.3042 9.70181 16.0815 9.47912 16.0815 9.20694C16.0815 8.93476 16.3042 8.71205 16.5763 8.71205H18.6063C18.8796 8.71205 19.1012 8.93361 19.1012 9.20693ZM5.89227 43.8018H2.7865C2.92112 44.1348 3.06162 44.4644 3.20717 44.7916H5.89227C6.16559 44.7916 6.3871 44.5701 6.3871 44.2967C6.3871 44.0234 6.16559 43.8018 5.89227 43.8018ZM8.11732 44.7916H7.65145C7.37814 44.7916 7.15658 44.57 7.15658 44.2967C7.15658 44.0234 7.37814 43.8018 7.65145 43.8018H8.11732C8.39061 43.8018 8.61216 44.0234 8.61216 44.2967V44.2967C8.61216 44.57 8.39061 44.7916 8.11732 44.7916ZM57.3102 38.4821C57.3102 38.2088 57.0887 37.9872 56.8154 37.9872L48.9349 37.9872C48.6626 37.9872 48.44 38.21 48.44 38.4821C48.44 38.7543 48.6626 38.977 48.9349 38.977H56.8154C57.0887 38.977 57.3102 38.7554 57.3102 38.4821ZM58.0789 38.4821C58.0789 38.7554 58.3005 38.977 58.5738 38.977H60.9408C61.2141 38.977 61.4357 38.7554 61.4357 38.4821C61.4357 38.2088 61.2141 37.9872 60.9408 37.9872H58.5738C58.3005 37.9872 58.0789 38.2088 58.0789 38.4821ZM46.8776 19.5342C46.8776 19.2609 47.0991 19.0394 47.3724 19.0394H55.2529C55.5252 19.0394 55.7478 19.2621 55.7478 19.5342C55.7478 19.8064 55.5252 20.0291 55.2529 20.0291H47.3724C47.0991 20.0291 46.8776 19.8075 46.8776 19.5342ZM46.1089 19.5342C46.1089 19.8075 45.8873 20.0291 45.614 20.0291H43.247C42.9737 20.0291 42.7521 19.8075 42.7521 19.5342C42.7521 19.2609 42.9737 19.0394 43.247 19.0394H45.614C45.8873 19.0394 46.1089 19.2609 46.1089 19.5342ZM12.8071 27.9451C12.8071 28.2185 12.5855 28.44 12.3122 28.44H8.12853C7.85521 28.44 7.63365 28.2185 7.63365 27.9451C7.63365 27.6718 7.85521 27.4503 8.12853 27.4503H12.3122C12.5855 27.4503 12.8071 27.6718 12.8071 27.9451ZM6.36344 27.9451C6.36344 28.2185 6.14188 28.44 5.86856 28.44H5.08167C4.80836 28.44 4.58679 28.2185 4.58679 27.9451C4.58679 27.6718 4.80836 27.4503 5.08167 27.4503H5.86856C6.14188 27.4503 6.36344 27.6718 6.36344 27.9451ZM22.8638 55.9133H18.455C18.1817 55.9133 17.9601 56.1349 17.9601 56.4082C17.9601 56.6815 18.1817 56.9031 18.455 56.9031H22.8638C23.136 56.9031 23.3587 56.6804 23.3587 56.4082C23.3587 56.136 23.136 55.9133 22.8638 55.9133ZM39.2711 56.646H45.5481C45.8214 56.646 46.043 56.8676 46.043 57.1409V57.1409C46.043 57.4142 45.8215 57.6357 45.5482 57.6357L39.2712 57.6357C38.999 57.6357 38.7763 57.413 38.7763 57.1409C38.7763 56.8687 38.9989 56.646 39.2711 56.646ZM47.3292 57.1409C47.3291 56.8676 47.5507 56.646 47.824 56.646H48.3558C48.6291 56.646 48.8507 56.8676 48.8507 57.1409C48.8507 57.4142 48.6292 57.6357 48.3559 57.6357H47.8241C47.5508 57.6357 47.3292 57.4142 47.3292 57.1409Z" fill="#DD9F00"/>
<path d="M49.6605 12.4776C49.6605 11.2341 48.6523 10.2261 47.4088 10.2261H40.7723L40.6891 9.97583C40.5134 9.44903 40.0225 9.09771 39.4732 9.09771H36.6362C36.2039 9.09771 35.8526 8.80059 35.722 8.39073C35.4248 7.42258 34.5196 6.72006 33.4526 6.72006H33.3939C32.7365 6.72006 32.142 6.98569 31.7142 7.41357C31.4439 7.68376 31.2368 8.01693 31.1242 8.39073C30.9937 8.80059 30.6425 9.09771 30.2102 9.09771H27.328C26.7788 9.09771 26.2879 9.44903 26.1123 9.97583L26.0291 10.2261H19.3901C18.1465 10.2261 17.1385 11.2341 17.1385 12.4776V50.7143C17.1385 51.9578 18.1465 52.9659 19.3901 52.9659H46.4306C46.4244 52.966 46.4188 52.9678 46.4126 52.9678H47.4078C48.1848 52.9678 48.8701 52.5736 49.2749 51.9745C49.5182 51.6149 49.6605 51.1812 49.6605 50.7143V12.4776H49.6605ZM33.4029 7.97643C33.9838 7.97643 34.4566 8.44482 34.4566 9.03016C34.4566 9.61105 33.9838 10.0839 33.4029 10.0839C32.8175 10.0839 32.3446 9.61105 32.3446 9.03016C32.3446 8.44482 32.8175 7.97643 33.4029 7.97643Z" fill="#166076"/>
<path d="M8.1629 52.5911C13.9404 59.2734 22.4731 63.5077 32 63.5077C41.527 63.5077 50.0595 59.2734 55.8371 52.5911H8.1629Z" fill="#DD9F00"/>
<path d="M48.261 12.4777V50.7143C48.261 51.9579 47.2529 52.9659 46.0094 52.9659H17.9906C16.7471 52.9659 15.739 51.9579 15.739 50.7143V12.4777C15.739 11.2342 16.7471 10.2261 17.9906 10.2261H46.0094C47.2529 10.2261 48.261 11.2342 48.261 12.4777Z" fill="#107999"/>
<path d="M48.26 12.4797V50.7161C48.26 51.959 47.2513 52.9677 46.0084 52.9677H45.0132C46.256 52.9677 47.2648 51.959 47.2648 50.7161V12.4797C47.2648 11.2323 46.256 10.2281 45.0132 10.2281H46.0084C47.2513 10.2281 48.26 11.2323 48.26 12.4797Z" fill="#116F8C"/>
<path d="M45.1087 13.3784H18.8913V49.8136H45.1087V13.3784Z" fill="#EDEDED"/>
<path d="M40.3282 13.1026L39.2897 9.97586C39.114 9.44902 38.6231 9.09776 38.0737 9.09776H35.2368C34.8044 9.09776 34.4531 8.80059 34.3225 8.39073C34.0253 7.42259 33.1202 6.72006 32.053 6.72006H31.9944C31.337 6.72006 30.7425 6.98568 30.3147 7.41357C30.0445 7.68381 29.8374 8.01693 29.7248 8.39073C29.5942 8.80059 29.243 9.09776 28.8107 9.09776H25.9286C25.3793 9.09776 24.8884 9.44902 24.7128 9.97586L23.6739 13.1032C23.4865 13.6673 23.9065 14.2494 24.5009 14.2494H39.5008C40.0955 14.2494 40.5157 13.667 40.3282 13.1026ZM32.0034 10.0839C31.418 10.0839 30.9451 9.61108 30.9451 9.03015C30.9451 8.44482 31.418 7.97647 32.0034 7.97647C32.5844 7.97647 33.0572 8.44482 33.0572 9.03015C33.0572 9.61108 32.5843 10.0839 32.0034 10.0839Z" fill="#386384"/>
<path d="M40.3298 13.101L40.3163 13.065C40.1947 13.3893 39.8885 13.6325 39.5012 13.6325H24.5012C24.1138 13.6325 23.8077 13.3893 23.6861 13.065L23.6725 13.101C23.4879 13.6684 23.9067 14.2494 24.5012 14.2494H39.5012C40.0956 14.2494 40.5144 13.6684 40.3298 13.101Z" fill="#2F4867"/>
<path d="M17.1384 26.6241V29.3666C17.1384 29.5467 16.9943 29.6908 16.8187 29.6908C16.6431 29.6908 16.499 29.5467 16.499 29.3666V26.6241C16.499 26.4486 16.6431 26.3044 16.8187 26.3044C16.9943 26.3044 17.1384 26.4486 17.1384 26.6241ZM17.1384 16.537V24.6293C17.1384 24.8048 16.9943 24.949 16.8187 24.949C16.6431 24.949 16.499 24.8048 16.499 24.6293V16.537C16.499 16.3614 16.6431 16.2172 16.8187 16.2172C16.9943 16.2172 17.1384 16.3614 17.1384 16.537Z" fill="#AFD2DD"/>
<path d="M29.8311 37.9559C29.4478 37.9559 29.08 37.8034 28.8089 37.5323L25.1305 33.8539C24.5658 33.2895 24.5658 32.374 25.1305 31.8096C25.6945 31.2449 26.6108 31.2449 27.1748 31.8096L29.8311 34.4656L36.8255 27.4712C37.3895 26.9065 38.305 26.9065 38.8697 27.4712C39.4345 28.0355 39.4345 28.9511 38.8697 29.5155L30.8532 37.5323C30.5821 37.8034 30.2144 37.9559 29.8311 37.9559Z" fill="#FF3B30"/>
</svg>
