<svg width="64" height="64" viewBox="0 0 64 64" fill="none" xmlns="http://www.w3.org/2000/svg">
<path d="M32 63.0303C48.4413 63.0303 61.7697 49.702 61.7697 33.2606C61.7697 16.8193 48.4413 3.49091 32 3.49091C15.5586 3.49091 2.2303 16.8193 2.2303 33.2606C2.2303 49.702 15.5586 63.0303 32 63.0303Z" fill="#FFCC48"/>
<path d="M40.3394 36.6545C38.497 32.9697 38.7879 31.7091 37.9151 28.8C37.0424 25.8909 36.7515 16.1939 32.2909 17.5515C30.7394 18.0364 29.9636 18.9091 29.6727 19.9758L26.8606 20.2667C25.7939 20.3636 24.8242 21.1394 24.5333 22.303L21.5273 34.5212C21.2364 35.6848 21.3333 36.8485 21.8182 37.8182L28.5091 53.5273H41.4061C42.8606 47.7091 42.1818 40.3394 40.3394 36.6545ZM32.5818 34.8121L31.3212 28.703C32.9697 33.0667 32.5818 34.8121 32.5818 34.8121Z" fill="#F9BBAD"/>
<path d="M36.9455 32.1939C36.9455 32.1939 39.9515 34.9091 38.2061 32.9697C38.2061 32.9697 41.9879 33.2606 40.9212 31.0303C40.9212 31.0303 39.3697 28.6061 37.2364 27.3455C37.2364 27.3455 40.9212 26.3758 39.2727 24.3394C37.6242 22.303 29.3818 20.0727 29.3818 20.0727C29.3818 20.0727 29.0909 23.9515 29.8667 25.503C29.8667 25.503 28.703 25.697 28.4121 25.6C28.4121 25.6 29.1879 28.3151 27.7333 29.7697C27.7333 29.7697 29.7697 30.4485 29.8667 35.0061L31.5152 35.5879L36.9455 32.1939Z" fill="#F09A90"/>
<path d="M43.0545 52.2667V60.9939C39.5636 62.2545 35.8788 63.0303 32 63.0303C30.1576 63.0303 28.2182 62.8364 26.4727 62.5454V52.2667H43.0545Z" fill="#107999"/>
<path d="M32 12.9939L50.0364 25.1152V0.969696L32 12.9939Z" fill="#BAD8E7"/>
<path d="M32 12.9939L13.9636 25.1152V0.969696L32 12.9939Z" fill="#BAD8E7"/>
<path d="M32 11.1515L13.9636 25.1152H50.0364L32 11.1515Z" fill="#A6C7D6"/>
<path d="M13.9636 0.969696H50.0364L32.4849 15.6121L13.9636 0.969696Z" fill="#DFEFFA"/>
<path d="M30.6424 26.7636L30.5455 26.5697C31.6121 29.5758 31.6121 33.9394 31.3212 35.6848L39.1758 34.0364C38.497 32.097 38.497 30.9333 37.9152 28.8C37.0424 25.8909 36.7515 16.1939 32.2909 17.5515C30.4485 18.1333 29.6727 19.297 29.4788 20.7515C29.4788 22.9818 29.5758 24.8242 30.6424 26.7636Z" fill="#F9BBAD"/>
<path d="M34.9091 19.297C34.9091 19.103 34.7152 18.9091 34.4242 18.8121C33.0667 18.7151 31.8061 18.9091 30.7394 19.5879C30.5455 19.6848 30.4485 19.9757 30.5455 20.1697L31.3212 23.8545C31.4182 24.1454 31.6121 24.3394 31.903 24.2424L35.2 23.6606C35.4909 23.5636 35.6849 23.3697 35.5879 22.9818L34.9091 19.297Z" fill="#DFEFFA"/>
</svg>
