<svg width="61" height="61" viewBox="0 0 61 61" fill="none" xmlns="http://www.w3.org/2000/svg">
<path d="M31.0863 32.9999C26.7427 32.9999 23.0523 34.263 20.6419 36.2428V39.9251H41.5324V36.2428C39.122 34.263 35.4308 32.9999 31.0863 32.9999V32.9999ZM50.2662 31.1101L31.0357 22.2485L11.8132 31.1101L15.0175 32.5765V34.8319C14.214 34.9982 14.2116 35.4192 14.2116 35.9198C14.2116 36.2155 14.3096 36.5618 14.4961 36.7691L13.3969 39.1216H17.3179L16.2284 36.7674C16.4116 36.5601 16.5618 36.2548 16.5618 35.9591C16.5618 35.4594 15.821 34.9974 15.821 34.8311V32.9533L19.8384 34.7579V34.598C22.2488 32.5018 26.484 31.1712 31.0855 31.1712C35.6887 31.1712 39.9254 32.5018 42.3359 34.598V34.7579L50.2662 31.1101V31.1101Z" fill="#FFCC48"/>
<circle opacity="0.1" cx="30.5" cy="30.5" r="30.5" fill="#FFCC48"/>
</svg>
