<svg width="57" height="57" viewBox="0 0 57 57" fill="none" xmlns="http://www.w3.org/2000/svg">
<path d="M21.375 49.875H12.4688C11.052 49.8734 9.69368 49.3099 8.69187 48.3081C7.69006 47.3063 7.12656 45.948 7.125 44.5312V35.625C7.125 35.1526 7.31267 34.6995 7.64672 34.3655C7.98077 34.0314 8.43383 33.8438 8.90625 33.8438C9.37867 33.8438 9.83173 34.0314 10.1658 34.3655C10.4998 34.6995 10.6875 35.1526 10.6875 35.625V44.5312C10.6881 45.0035 10.876 45.4562 11.2099 45.7901C11.5438 46.124 11.9965 46.3119 12.4688 46.3125H21.375C21.8474 46.3125 22.3005 46.5002 22.6345 46.8342C22.9686 47.1683 23.1562 47.6213 23.1562 48.0938C23.1562 48.5662 22.9686 49.0192 22.6345 49.3533C22.3005 49.6873 21.8474 49.875 21.375 49.875ZM48.0938 23.1562C47.6213 23.1562 47.1683 22.9686 46.8342 22.6345C46.5002 22.3005 46.3125 21.8474 46.3125 21.375V12.4688C46.3119 11.9965 46.124 11.5438 45.7901 11.2099C45.4562 10.876 45.0035 10.6881 44.5312 10.6875H35.625C35.1526 10.6875 34.6995 10.4998 34.3655 10.1658C34.0314 9.83173 33.8438 9.37867 33.8438 8.90625C33.8438 8.43383 34.0314 7.98077 34.3655 7.64672C34.6995 7.31267 35.1526 7.125 35.625 7.125H44.5312C45.948 7.12656 47.3063 7.69006 48.3081 8.69187C49.3099 9.69368 49.8734 11.052 49.875 12.4688V21.375C49.875 21.8474 49.6873 22.3005 49.3533 22.6345C49.0192 22.9686 48.5662 23.1562 48.0938 23.1562ZM44.5312 49.875H35.625C35.1526 49.875 34.6995 49.6873 34.3655 49.3533C34.0314 49.0192 33.8438 48.5662 33.8438 48.0938C33.8438 47.6213 34.0314 47.1683 34.3655 46.8342C34.6995 46.5002 35.1526 46.3125 35.625 46.3125H44.5312C45.0035 46.3119 45.4562 46.124 45.7901 45.7901C46.124 45.4562 46.3119 45.0035 46.3125 44.5312V35.625C46.3125 35.1526 46.5002 34.6995 46.8342 34.3655C47.1683 34.0314 47.6213 33.8438 48.0938 33.8438C48.5662 33.8438 49.0192 34.0314 49.3533 34.3655C49.6873 34.6995 49.875 35.1526 49.875 35.625V44.5312C49.8734 45.948 49.3099 47.3063 48.3081 48.3081C47.3063 49.3099 45.948 49.8734 44.5312 49.875ZM8.90625 23.1562C8.43383 23.1562 7.98077 22.9686 7.64672 22.6345C7.31267 22.3005 7.125 21.8474 7.125 21.375V12.4688C7.12656 11.052 7.69006 9.69368 8.69187 8.69187C9.69368 7.69006 11.052 7.12656 12.4688 7.125H21.375C21.8474 7.125 22.3005 7.31267 22.6345 7.64672C22.9686 7.98077 23.1562 8.43383 23.1562 8.90625C23.1562 9.37867 22.9686 9.83173 22.6345 10.1658C22.3005 10.4998 21.8474 10.6875 21.375 10.6875H12.4688C11.9965 10.6881 11.5438 10.876 11.2099 11.2099C10.876 11.5438 10.6881 11.9965 10.6875 12.4688V21.375C10.6875 21.8474 10.4998 22.3005 10.1658 22.6345C9.83173 22.9686 9.37867 23.1562 8.90625 23.1562ZM28.5 38.6414C28.1873 38.6416 27.8802 38.5594 27.6094 38.403L20.3688 34.223C20.0979 34.0666 19.8731 33.8417 19.7167 33.5709C19.5604 33.3 19.4781 32.9928 19.4781 32.6801V24.3199C19.4781 24.0072 19.5604 23.7 19.7167 23.4291C19.8731 23.1583 20.0979 22.9334 20.3688 22.777L27.6094 18.5962C27.8802 18.4399 28.1873 18.3576 28.5 18.3576C28.8127 18.3576 29.1198 18.4399 29.3906 18.5962L36.6312 22.7763C36.9021 22.9327 37.1269 23.1576 37.2833 23.4284C37.4396 23.6993 37.5219 24.0065 37.5219 24.3192V32.6793C37.5219 32.9921 37.4396 33.2993 37.2833 33.5701C37.1269 33.841 36.9021 34.0659 36.6312 34.2223L29.3906 38.4037C29.1198 38.5598 28.8126 38.6418 28.5 38.6414ZM23.0406 31.6528L28.5 34.8031L33.9594 31.6528V25.349L28.5 22.1969L23.0406 25.3481V31.6528Z" fill="#FFCC48"/>
</svg>
