<svg width="60" height="60" viewBox="0 0 60 60" fill="none" xmlns="http://www.w3.org/2000/svg">
<g clip-path="url(#clip0)">
<path d="M36.4488 15.5759L34.8868 4.67212C34.8868 2.58177 32.9195 0.0525882 32.9195 0.0525882C32.7025 0.018 32.4802 0 32.2536 0C29.9367 0 28.0585 1.87824 28.0585 4.19506V5.75894L27.3096 15.5759H36.4488Z" fill="#FFCCBD"/>
<path d="M48.7217 19.1871V30.9989C48.7217 36.4694 46.6605 41.68 42.9194 45.6718L39.3099 49.5212V60H28.0594L26.7939 41.364L28.0594 16.5952L30.1067 14.8619L42.2255 14.5265C44.6551 14.5265 48.185 16.7052 48.185 16.7052C48.5296 17.4621 48.7217 18.3026 48.7217 19.1871Z" fill="#FFBDA9"/>
<path d="M28.0591 13.1765V60.0001H16.9568V49.2859L14.065 44.1448C12.2627 40.9401 11.3097 37.3036 11.3097 33.6271L11.2783 22.0403L26.3686 13.1765H28.0591Z" fill="#FFCCBD"/>
<path d="M11.2783 9.90086V22.04C11.2783 24.357 13.1566 26.2351 15.4734 26.2351C15.7 26.2351 15.9223 26.2171 16.1391 26.1825C16.1391 26.1825 18.7843 23.5356 18.7843 21.4453L17.9037 10.6684C17.9037 8.57804 16.1391 5.75815 16.1391 5.75815C15.9223 5.72357 15.7 5.70557 15.4734 5.70557C13.1566 5.7058 11.2783 7.58404 11.2783 9.90086Z" fill="#FFDDCE"/>
<path d="M19.6685 5.95982V22.0402C19.6685 24.3571 21.5467 26.2352 23.8635 26.2352C24.0901 26.2352 24.3125 26.2172 24.5293 26.1826C24.5293 26.1826 26.8355 23.6616 26.8355 21.5712L26.6678 6.26547C26.6678 4.17511 24.5293 1.81711 24.5293 1.81711C24.3125 1.78253 24.0901 1.76453 23.8635 1.76453C21.5467 1.76476 19.6685 3.643 19.6685 5.95982Z" fill="#FFDDCE"/>
<path d="M16.1392 5.75916V26.1823C18.1396 25.8633 19.6686 24.1307 19.6686 22.0403V9.90104C19.6686 7.8108 18.1396 6.07821 16.1392 5.75916Z" fill="#FFBDA9"/>
<path d="M24.5293 1.81787V26.1822C26.5298 25.8632 28.0587 24.1306 28.0587 22.0402V5.95975C28.0587 3.86952 26.5298 2.13693 24.5293 1.81787Z" fill="#FFBDA9"/>
<path d="M44.8388 16.5951L42.854 5.75888C42.854 3.66853 41.3095 1.81711 41.3095 1.81711C41.0927 1.78253 40.8704 1.76453 40.6438 1.76453C38.3268 1.76453 36.4487 3.64276 36.4487 5.95959V16.595H44.8388V16.5951Z" fill="#FFCCBD"/>
<path d="M32.9194 0.0532227V15.576H36.4488V4.19511C36.4488 2.10487 34.9199 0.372282 32.9194 0.0532227Z" fill="#F9A58D"/>
<path d="M41.3096 1.81787V16.5953H44.839V5.95975C44.839 3.86952 43.3099 2.13693 41.3096 1.81787Z" fill="#F9A58D"/>
<path d="M35.4444 24.2353H38.0979V25.2511C34.2133 27.8158 31.8234 32.2263 31.8234 36.902V40H35.3528V36.902C35.3528 33.2611 37.2923 29.8356 40.4147 27.9622L41.6273 27.2343V20.7059H35.4444C33.318 20.7059 31.5881 18.976 31.5881 16.8497V16.7059H48.1832C47.2366 14.6266 45.1405 13.1765 42.7108 13.1765H28.0591V16.8666C28.0684 20.9313 31.3777 24.2353 35.4444 24.2353Z" fill="#F9A58D"/>
</g>
<defs>
<clipPath id="clip0">
<rect width="60" height="60" fill="white"/>
</clipPath>
</defs>
</svg>
