<svg width="60" height="60" viewBox="0 0 60 60" fill="none" xmlns="http://www.w3.org/2000/svg">
<g clip-path="url(#clip0)">
<path d="M30 60C46.5685 60 60 46.5685 60 30C60 13.4315 46.5685 0 30 0C13.4315 0 0 13.4315 0 30C0 46.5685 13.4315 60 30 60Z" fill="#FF735C"/>
<path d="M60.0002 30C60.0002 26.1711 59.2816 22.5104 57.974 19.1436L47.9373 9.10699L40.4738 7.88086L37.6369 5.15625L12.7891 51.6191L19.1438 57.9738C22.5106 59.2814 26.1713 60 30.0002 60C46.5687 60 60.0002 46.5686 60.0002 30Z" fill="#E85642"/>
<path d="M44.3884 52.6058H15.6118C13.1068 52.6058 11.0762 50.5751 11.0762 48.0702V11.9298C11.0762 9.42479 13.1068 7.39417 15.6118 7.39417H44.3884C46.8934 7.39417 48.924 9.42479 48.924 11.9298V48.0702C48.924 50.5752 46.8934 52.6058 44.3884 52.6058Z" fill="#3D5D72"/>
<path d="M48.9234 11.9297V48.0703C48.9234 50.5746 46.8937 52.6055 44.3883 52.6055H30V7.39453H44.3883C46.8937 7.39453 48.9234 9.42539 48.9234 11.9297Z" fill="#244654"/>
<path d="M45.1558 11.6129V48.2812H14.8442V11.6129H45.1558Z" fill="#FFF7C5"/>
<path d="M30 11.6133H45.1559V48.2812H30V11.6133Z" fill="#FFDE94"/>
<path d="M37.6367 5.15625V14.6598H22.3633V5.15625H37.6367Z" fill="#00CEB4"/>
<path d="M30 5.15625H37.6371V14.6602H30V5.15625Z" fill="#00B2A1"/>
<path d="M20.625 19.8956H30V23.4113H20.625V19.8956Z" fill="#4E7184"/>
<path d="M20.625 29.4088H30V32.9244H20.625V29.4088Z" fill="#4E7184"/>
<path d="M20.625 38.9221H30V42.4377H20.625V38.9221Z" fill="#4E7184"/>
<path d="M39.4158 18.1564L37.0133 20.9444L35.4536 19.5986L33.5156 21.856L37.3997 25.0529L41.6401 20.1322L39.4158 18.1564Z" fill="#00B2A1"/>
<path d="M39.4158 27.7183L37.0133 30.5063L35.4536 29.1606L33.5156 31.418L37.3997 34.6149L41.6401 29.694L39.4158 27.7183Z" fill="#00B2A1"/>
<path d="M39.4158 37.2803L37.0133 40.0683L35.4536 38.7225L33.5156 40.9799L37.3997 44.1768L41.6401 39.2561L39.4158 37.2803Z" fill="#00B2A1"/>
</g>
<defs>
<clipPath id="clip0">
<rect width="60" height="60" fill="white"/>
</clipPath>
</defs>
</svg>
