<svg width="60" height="60" viewBox="0 0 60 60" fill="none" xmlns="http://www.w3.org/2000/svg">
<g clip-path="url(#clip0)">
<path d="M42.4974 36.3615V47.3566H6.32812V36.3615C6.32812 29.6493 10.004 23.779 15.4482 20.6593C18.0917 19.1441 21.1523 18.2776 24.4121 18.2776C27.4475 18.2776 30.3104 19.0288 32.8249 20.3563C38.5725 23.3876 42.4974 29.4246 42.4974 36.3615Z" fill="#FF9A01"/>
<path d="M42.4972 36.362V47.3561H24.4124V18.2776C34.3852 18.2776 42.4972 26.3896 42.4972 36.362Z" fill="#FF712F"/>
<path d="M35.5107 10.9813C35.5107 17.1007 30.5321 22.0798 24.4122 22.0798C18.2928 22.0798 13.3142 17.1007 13.3142 10.9813C13.3142 4.86145 18.2928 -0.117188 24.4122 -0.117188C30.5321 -0.117188 35.5107 4.86191 35.5107 10.9813Z" fill="#FDD1A3"/>
<path d="M35.5108 10.9813C35.5108 17.1007 30.5322 22.0798 24.4124 22.0798V-0.117188C30.5322 -0.117188 35.5108 4.86191 35.5108 10.9813Z" fill="#FFBB85"/>
<path d="M53.8197 35.9692V40.3972C53.8197 44.2525 52.7605 48.0313 50.755 51.3235C48.7504 54.6162 45.8807 57.2937 42.4566 59.0634L40.8714 59.8828L39.2862 59.0634C35.8607 57.2937 32.991 54.6162 30.9865 51.3235C28.9819 48.0313 27.9231 44.2525 27.9231 40.3972V35.9692L29.1041 35.5572C31.111 34.8582 32.6962 33.3179 33.4547 31.3312L33.8868 30.1978H47.8546L48.2881 31.3312C49.0466 33.3179 50.6318 34.8582 52.6387 35.5572L53.8197 35.9692Z" fill="#0089FF"/>
<path d="M53.8196 35.9692V40.3972C53.8196 44.2525 52.7604 48.0313 50.7549 51.3235C48.7504 54.6162 45.8806 57.2937 42.4566 59.0634L40.8713 59.8828V30.1978H47.8545L48.288 31.3312C49.0465 33.3179 50.6318 34.8582 52.6386 35.5572L53.8196 35.9692Z" fill="#4B5BE7"/>
<path d="M47.9912 40.9996L40.8716 47.8807L40.1154 48.6113L34.7632 43.5562L37.182 40.9941L40.087 43.7393L40.8716 42.9808L45.5426 38.4668L47.9912 40.9996Z" fill="#CAE8F9"/>
<path d="M47.991 40.9996L40.8713 47.8807V42.9808L45.5424 38.4668L47.991 40.9996Z" fill="#B8E0F8"/>
</g>
<defs>
<clipPath id="clip0">
<rect width="60" height="60" fill="white"/>
</clipPath>
</defs>
</svg>
