<svg width="60" height="60" viewBox="0 0 60 60" fill="none" xmlns="http://www.w3.org/2000/svg">
<path d="M3.5293 37.0588V60H29.9999L31.1764 47.9411L29.9999 37.0588L16.7646 35.8823L3.5293 37.0588Z" fill="#FDBF00"/>
<path d="M56.4706 37.0588L43.1765 35.8823L30 37.0588V60H56.4706V37.0588Z" fill="#FF9721"/>
<path d="M12.353 49.4119H30.0001V52.9413H12.353V49.4119Z" fill="#4A5F73"/>
<path d="M12.353 42.353H26.4707V45.8824H12.353V42.353Z" fill="#4A5F73"/>
<path d="M18.172 26.4706H0V37.0588H30L31.1765 34.5294L30 31.7647L18.172 26.4706Z" fill="#FFDA2D"/>
<path d="M60 26.4706H41.8269L30 31.7647V37.0588H60V26.4706Z" fill="#FDBF00"/>
<path d="M17.1178 23.0293L26.8531 29.7058L28.2353 28.1096L30.0002 24.7058L31.1766 14.7058L30.0002 7.05875L28.2353 3.65499L26.0393 2.21558L16.7061 9.09805L17.7729 14.1175L18.8237 15.8823L17.7729 17.6471L17.1178 23.0293Z" fill="#F4F1F1"/>
<path d="M30 3.52942V28.2353C36.8114 28.2353 42.3529 22.6938 42.3529 15.8824C42.3529 9.07095 36.8114 3.52942 30 3.52942Z" fill="#F4F1F1"/>
<path d="M36.5882 29.2157L42.7844 22.7059L42.2273 17.6472L41.1765 15.8824L42.2273 14.1175L43.1765 8.6471L32.9632 3.17651L31.7648 3.6551L30 7.05887V24.706L31.7648 28.1097L36.5882 29.2157Z" fill="#EAE7EA"/>
<path d="M43.5296 15.8824L42.2266 14.1177H38.8237V17.6471H42.2266L43.5296 15.8824Z" fill="#DDDADF"/>
<path d="M17.7738 17.6471H21.1766V14.1177H17.7738L16.4707 15.8824L17.7738 17.6471Z" fill="#EAE7EA"/>
<path d="M30 3.52937V7.05878H31.7647V3.65596L30.8908 2.38513L30 3.52937Z" fill="#DDDADF"/>
<path d="M29.2209 2.37756L28.2349 3.65603V7.05886H29.9996V5.4118V3.52945L29.2209 2.37756Z" fill="#EAE7EA"/>
<path d="M29.9996 28.2353L31.176 26.4118L29.9996 24.7059H28.2349V28.1088L29.1087 29.3796L29.9996 28.2353Z" fill="#EAE7EA"/>
<path d="M30.9576 29.3746L31.7647 28.1088V24.7059H30V28.2353L30.9576 29.3746Z" fill="#DDDADF"/>
<path d="M28.2349 10.5883V16.6133L29.9996 18.378L31.176 13.6471L29.9996 10.5883H28.2349Z" fill="#4A5F73"/>
<path d="M34.7772 18.164L31.7647 15.1514V10.5883H30V18.378L32.2816 20.6596L34.7772 18.164Z" fill="#263442"/>
<path d="M17.6471 15.8824C17.6471 9.07094 23.1885 3.52941 30 3.52941L31.1765 1.64706L30 0C21.2424 0 14.1177 7.12482 14.1177 15.8824C14.1177 24.6399 21.2424 31.7647 30 31.7647L31.1765 29.8235L30 28.2353C23.1885 28.2353 17.6471 22.6938 17.6471 15.8824Z" fill="#FF7B4A"/>
<path d="M30 0V3.52941C36.8114 3.52941 42.3529 9.07094 42.3529 15.8824C42.3529 22.6938 36.8114 28.2353 30 28.2353V31.7647C38.7575 31.7647 45.8824 24.6399 45.8824 15.8824C45.8824 7.12482 38.7575 0 30 0Z" fill="#FF435B"/>
</svg>
