<svg width="60" height="60" viewBox="0 0 60 60" fill="none" xmlns="http://www.w3.org/2000/svg">
<path d="M52.5258 56.4843V59.9999H44.0883L43.1226 46.5383L44.0883 37.1929L44.4988 36.3754H45.4563L45.8461 37.1929V56.4843H52.5258Z" fill="#CA671B"/>
<path d="M44.0881 37.1929V59.9999H35.6506V56.4843H42.3303V37.1929L42.7334 36.3754H43.5712L44.0881 37.1929Z" fill="#FF7C48"/>
<path d="M59.9998 0V37.193H44.0881L41.8457 21.4465L44.0881 0H59.9998Z" fill="#DCEAEC"/>
<path d="M28.1775 0H44.088V37.193H28.1775V0Z" fill="#F1F6F7"/>
<path d="M51.7439 9.63982L39.2084 21.4465L39.0232 20.8769L39.1732 19.4109L39.8014 18.484L38.9928 19.1414H37.5865L37.2256 18.484L49.3334 7.08044L51.7439 9.63982Z" fill="#323C3C"/>
<path d="M21.7136 12.1841C21.7136 15.483 19.1893 18.1923 15.9667 18.4841H15.3866L12.873 12.1707L15.3866 5.85718C18.8811 5.85718 21.7136 8.6896 21.7136 12.1841Z" fill="#EDBE00"/>
<path d="M15.3868 5.85718V18.4841H14.8067C11.584 18.1923 9.05981 15.483 9.05981 12.1841C9.05981 8.6896 11.8922 5.85718 15.3868 5.85718Z" fill="#FFD944"/>
<path d="M39.8017 18.484C39.8017 19.534 39.5908 20.5348 39.2087 21.4465C38.0497 24.2156 35.3146 26.161 32.1247 26.161H23.0638V60H17.1447V43.9453H15.3868L11.4583 27.2775L15.3868 18.484H39.8017Z" fill="#EDBE00"/>
<path d="M15.3867 18.484V43.9453H13.6289V60H7.70859V42.0949H7.70977V28.4063H4.19414V42.0949H0V26.161C0 21.9211 3.46992 18.484 7.70859 18.484H15.3867Z" fill="#FFD944"/>
</svg>
